<svg id="visual" viewBox="0 0 960 540" width="960" height="540" xmlns="http://www.w3.org/2000/svg" xmlns:xlink="http://www.w3.org/1999/xlink" version="1.1"><g stroke-width="1" stroke-linejoin="bevel"><path d="M507 294L477 370L567 349Z" fill="#373432" stroke="#DBA61F"></path><path d="M477 370L553 424L567 349Z" fill="#262525" stroke="#DBA61F"></path><path d="M507 294L413 278L477 370Z" fill="#423e3b" stroke="#DBA61F"></path><path d="M567 349L576 229L507 294Z" fill="#4e4845" stroke="#DBA61F"></path><path d="M507 294L481 201L413 278Z" fill="#423e3b" stroke="#DBA61F"></path><path d="M576 229L481 201L507 294Z" fill="#262525" stroke="#DBA61F"></path><path d="M403 440L437 465L477 370Z" fill="#423e3b" stroke="#DBA61F"></path><path d="M477 370L437 465L553 424Z" fill="#3d3937" stroke="#DBA61F"></path><path d="M360 330L403 440L477 370Z" fill="#212120" stroke="#DBA61F"></path><path d="M352 215L360 330L413 278Z" fill="#212120" stroke="#DBA61F"></path><path d="M413 278L360 330L477 370Z" fill="#212120" stroke="#DBA61F"></path><path d="M553 424L683 364L567 349Z" fill="#373432" stroke="#DBA61F"></path><path d="M567 349L700 257L576 229Z" fill="#3d3937" stroke="#DBA61F"></path><path d="M668 153L565 182L576 229Z" fill="#2c2a29" stroke="#DBA61F"></path><path d="M576 229L565 182L481 201Z" fill="#3d3937" stroke="#DBA61F"></path><path d="M683 364L700 257L567 349Z" fill="#262525" stroke="#DBA61F"></path><path d="M437 465L558 540L553 424Z" fill="#544d4a" stroke="#DBA61F"></path><path d="M553 424L682 474L683 364Z" fill="#373432" stroke="#DBA61F"></path><path d="M481 201L352 215L413 278Z" fill="#4e4845" stroke="#DBA61F"></path><path d="M366 131L352 215L481 201Z" fill="#2c2a29" stroke="#DBA61F"></path><path d="M390 540L449 540L437 465Z" fill="#544d4a" stroke="#DBA61F"></path><path d="M437 465L449 540L558 540Z" fill="#2c2a29" stroke="#DBA61F"></path><path d="M638 540L682 474L553 424Z" fill="#544d4a" stroke="#DBA61F"></path><path d="M683 364L799 276L700 257Z" fill="#262525" stroke="#DBA61F"></path><path d="M591 74L522 112L565 182Z" fill="#4e4845" stroke="#DBA61F"></path><path d="M565 182L522 112L481 201Z" fill="#212120" stroke="#DBA61F"></path><path d="M558 540L638 540L553 424Z" fill="#312f2d" stroke="#DBA61F"></path><path d="M849 436L734 434L806 540Z" fill="#312f2d" stroke="#DBA61F"></path><path d="M682 474L734 434L683 364Z" fill="#423e3b" stroke="#DBA61F"></path><path d="M289 433L390 540L403 440Z" fill="#3d3937" stroke="#DBA61F"></path><path d="M403 440L390 540L437 465Z" fill="#373432" stroke="#DBA61F"></path><path d="M700 257L668 153L576 229Z" fill="#1c1c1c" stroke="#DBA61F"></path><path d="M254 322L289 433L360 330Z" fill="#262525" stroke="#DBA61F"></path><path d="M360 330L289 433L403 440Z" fill="#484340" stroke="#DBA61F"></path><path d="M668 153L659 129L565 182Z" fill="#373432" stroke="#DBA61F"></path><path d="M522 112L366 131L481 201Z" fill="#2c2a29" stroke="#DBA61F"></path><path d="M251 253L254 322L360 330Z" fill="#484340" stroke="#DBA61F"></path><path d="M251 253L360 330L352 215Z" fill="#312f2d" stroke="#DBA61F"></path><path d="M659 129L591 74L565 182Z" fill="#4e4845" stroke="#DBA61F"></path><path d="M522 112L402 0L366 131Z" fill="#484340" stroke="#DBA61F"></path><path d="M272 154L251 253L352 215Z" fill="#262525" stroke="#DBA61F"></path><path d="M849 436L799 374L734 434Z" fill="#2c2a29" stroke="#DBA61F"></path><path d="M734 434L799 374L683 364Z" fill="#2c2a29" stroke="#DBA61F"></path><path d="M700 257L754 139L668 153Z" fill="#484340" stroke="#DBA61F"></path><path d="M668 153L754 139L659 129Z" fill="#423e3b" stroke="#DBA61F"></path><path d="M799 374L799 276L683 364Z" fill="#484340" stroke="#DBA61F"></path><path d="M302 118L272 154L352 215Z" fill="#484340" stroke="#DBA61F"></path><path d="M302 118L352 215L366 131Z" fill="#544d4a" stroke="#DBA61F"></path><path d="M321 0L302 118L366 131Z" fill="#3d3937" stroke="#DBA61F"></path><path d="M799 276L754 139L700 257Z" fill="#1c1c1c" stroke="#DBA61F"></path><path d="M659 129L678 0L591 74Z" fill="#212120" stroke="#DBA61F"></path><path d="M289 433L275 540L390 540Z" fill="#3d3937" stroke="#DBA61F"></path><path d="M210 540L275 540L289 433Z" fill="#262525" stroke="#DBA61F"></path><path d="M251 253L204 312L254 322Z" fill="#212120" stroke="#DBA61F"></path><path d="M254 322L193 430L289 433Z" fill="#1c1c1c" stroke="#DBA61F"></path><path d="M180 178L204 312L251 253Z" fill="#484340" stroke="#DBA61F"></path><path d="M162 351L193 430L254 322Z" fill="#3d3937" stroke="#DBA61F"></path><path d="M885 325L849 262L799 276Z" fill="#423e3b" stroke="#DBA61F"></path><path d="M799 276L849 262L754 139Z" fill="#544d4a" stroke="#DBA61F"></path><path d="M553 0L522 112L591 74Z" fill="#1c1c1c" stroke="#DBA61F"></path><path d="M553 0L509 0L522 112Z" fill="#423e3b" stroke="#DBA61F"></path><path d="M678 0L553 0L591 74Z" fill="#4e4845" stroke="#DBA61F"></path><path d="M806 540L734 434L682 474Z" fill="#1c1c1c" stroke="#DBA61F"></path><path d="M799 374L885 325L799 276Z" fill="#1c1c1c" stroke="#DBA61F"></path><path d="M638 540L806 540L682 474Z" fill="#4e4845" stroke="#DBA61F"></path><path d="M204 312L162 351L254 322Z" fill="#544d4a" stroke="#DBA61F"></path><path d="M74 308L162 351L204 312Z" fill="#1c1c1c" stroke="#DBA61F"></path><path d="M899 160L772 89L754 139Z" fill="#423e3b" stroke="#DBA61F"></path><path d="M754 139L772 89L659 129Z" fill="#544d4a" stroke="#DBA61F"></path><path d="M509 0L402 0L522 112Z" fill="#4e4845" stroke="#DBA61F"></path><path d="M110 446L210 540L193 430Z" fill="#2c2a29" stroke="#DBA61F"></path><path d="M193 430L210 540L289 433Z" fill="#423e3b" stroke="#DBA61F"></path><path d="M849 436L885 325L799 374Z" fill="#544d4a" stroke="#DBA61F"></path><path d="M844 0L746 0L772 89Z" fill="#373432" stroke="#DBA61F"></path><path d="M159 120L180 178L272 154Z" fill="#544d4a" stroke="#DBA61F"></path><path d="M272 154L180 178L251 253Z" fill="#312f2d" stroke="#DBA61F"></path><path d="M159 120L272 154L302 118Z" fill="#373432" stroke="#DBA61F"></path><path d="M772 89L678 0L659 129Z" fill="#484340" stroke="#DBA61F"></path><path d="M74 308L133 371L162 351Z" fill="#212120" stroke="#DBA61F"></path><path d="M162 351L133 371L193 430Z" fill="#3d3937" stroke="#DBA61F"></path><path d="M402 0L321 0L366 131Z" fill="#1c1c1c" stroke="#DBA61F"></path><path d="M806 540L869 540L849 436Z" fill="#212120" stroke="#DBA61F"></path><path d="M849 436L960 357L885 325Z" fill="#212120" stroke="#DBA61F"></path><path d="M899 160L754 139L849 262Z" fill="#373432" stroke="#DBA61F"></path><path d="M772 89L746 0L678 0Z" fill="#484340" stroke="#DBA61F"></path><path d="M159 120L134 188L180 178Z" fill="#423e3b" stroke="#DBA61F"></path><path d="M180 178L134 188L204 312Z" fill="#373432" stroke="#DBA61F"></path><path d="M0 350L110 446L133 371Z" fill="#4e4845" stroke="#DBA61F"></path><path d="M133 371L110 446L193 430Z" fill="#1c1c1c" stroke="#DBA61F"></path><path d="M202 0L159 120L302 118Z" fill="#1c1c1c" stroke="#DBA61F"></path><path d="M960 188L899 160L849 262Z" fill="#544d4a" stroke="#DBA61F"></path><path d="M960 312L849 262L885 325Z" fill="#3d3937" stroke="#DBA61F"></path><path d="M960 437L960 357L849 436Z" fill="#484340" stroke="#DBA61F"></path><path d="M960 357L960 312L885 325Z" fill="#423e3b" stroke="#DBA61F"></path><path d="M0 350L74 308L0 262Z" fill="#544d4a" stroke="#DBA61F"></path><path d="M134 188L74 308L204 312Z" fill="#1c1c1c" stroke="#DBA61F"></path><path d="M202 0L135 111L159 120Z" fill="#2c2a29" stroke="#DBA61F"></path><path d="M159 120L135 111L134 188Z" fill="#212120" stroke="#DBA61F"></path><path d="M869 540L960 437L849 436Z" fill="#262525" stroke="#DBA61F"></path><path d="M960 73L868 52L899 160Z" fill="#212120" stroke="#DBA61F"></path><path d="M899 160L868 52L772 89Z" fill="#262525" stroke="#DBA61F"></path><path d="M321 0L202 0L302 118Z" fill="#544d4a" stroke="#DBA61F"></path><path d="M960 312L960 188L849 262Z" fill="#484340" stroke="#DBA61F"></path><path d="M960 0L844 0L868 52Z" fill="#484340" stroke="#DBA61F"></path><path d="M868 52L844 0L772 89Z" fill="#312f2d" stroke="#DBA61F"></path><path d="M869 540L960 540L960 437Z" fill="#1c1c1c" stroke="#DBA61F"></path><path d="M0 492L62 540L110 446Z" fill="#262525" stroke="#DBA61F"></path><path d="M110 446L62 540L210 540Z" fill="#4e4845" stroke="#DBA61F"></path><path d="M960 188L960 73L899 160Z" fill="#2c2a29" stroke="#DBA61F"></path><path d="M74 308L0 350L133 371Z" fill="#212120" stroke="#DBA61F"></path><path d="M0 262L74 308L134 188Z" fill="#3d3937" stroke="#DBA61F"></path><path d="M0 144L134 188L135 111Z" fill="#4e4845" stroke="#DBA61F"></path><path d="M0 144L0 262L134 188Z" fill="#2c2a29" stroke="#DBA61F"></path><path d="M202 0L115 0L135 111Z" fill="#373432" stroke="#DBA61F"></path><path d="M0 350L0 492L110 446Z" fill="#3d3937" stroke="#DBA61F"></path><path d="M0 492L0 540L62 540Z" fill="#373432" stroke="#DBA61F"></path><path d="M0 66L0 144L135 111Z" fill="#484340" stroke="#DBA61F"></path><path d="M960 73L960 0L868 52Z" fill="#373432" stroke="#DBA61F"></path><path d="M115 0L0 66L135 111Z" fill="#544d4a" stroke="#DBA61F"></path><path d="M115 0L0 0L0 66Z" fill="#484340" stroke="#DBA61F"></path></g></svg>